<?xml version="1.0" standalone="no"?><!DOCTYPE svg PUBLIC "-//W3C//DTD SVG 1.1//EN" "http://www.w3.org/Graphics/SVG/1.1/DTD/svg11.dtd"><svg t="1770707341467" class="icon" viewBox="0 0 1024 1024" version="1.1" xmlns="http://www.w3.org/2000/svg" p-id="2579" xmlns:xlink="http://www.w3.org/1999/xlink" width="128" height="128"><path d="M730.58 161.16H417.05c-67.09 0-123.15 48.16-135.43 111.72h-7.33a113.83 113.83 0 0 0-113.7 113.7v362a113.83 113.83 0 0 0 113.7 113.7h362A113.82 113.82 0 0 0 750 749.2c66.91-9.47 118.53-67.1 118.53-136.57V299.1c-0.01-76.1-61.89-137.94-137.95-137.94zM274.29 332.88h362a53.76 53.76 0 0 1 53.7 53.7V435h-469.4v-48.42a53.75 53.75 0 0 1 53.7-53.7z m362 469.42h-362a53.75 53.75 0 0 1-53.7-53.7V495H690v253.6a53.76 53.76 0 0 1-53.7 53.7z m172.23-189.67A78.08 78.08 0 0 1 750 688.12V386.58a113.83 113.83 0 0 0-113.7-113.7H343.66a78.07 78.07 0 0 1 73.39-51.72h313.53a78 78 0 0 1 77.94 77.94z" fill="#333333" p-id="2580"></path></svg>