<?xml version="1.0" standalone="no"?><!DOCTYPE svg PUBLIC "-//W3C//DTD SVG 1.1//EN" "http://www.w3.org/Graphics/SVG/1.1/DTD/svg11.dtd"><svg t="1771912474789" class="icon" viewBox="0 0 1024 1024" version="1.1" xmlns="http://www.w3.org/2000/svg" p-id="1684" xmlns:xlink="http://www.w3.org/1999/xlink" width="128" height="128"><path d="M510.77206 254.081343c38.168482 0 76.848606 8.083941 115.017088 24.047167 34.075347 14.223643 68.45768 34.996303 102.32837 61.704007 50.140901 39.601079 98.337564 91.174578 147.250525 157.58569 6.549016 8.902568 6.549016 25.070451 0 33.973019-30.596183 41.545318-80.737084 101.10043-145.817927 148.990107-71.629859 52.699111-145.306286 79.406815-218.880384 79.406815-38.680124 0-77.257919-7.469971-114.710103-22.102928-33.25672-13.098031-66.513441-32.131108-98.849206-56.689917-48.605976-36.940542-94.960727-85.853503-141.827121-149.501749-6.549016-8.902568-6.549016-25.070451 0-33.973019 37.554512-51.061857 84.011592-109.696013 143.362047-158.19966 32.540422-26.605376 65.797142-47.275707 98.746877-61.294694C434.639752 262.165284 472.808234 254.081343 510.77206 254.081343M510.77206 198.824023C316.041171 198.824023 180.149096 370.735685 110.872789 464.775457c-20.874988 28.344959-20.874988 71.220546 0 99.565504C180.149096 658.278405 316.041171 815.147797 510.77206 815.147797c194.730888 0 339.832517-156.767063 409.108824-250.806835 20.874988-28.344959 20.874988-71.220546 0-99.565504C850.604577 370.735685 705.502948 198.824023 510.77206 198.824023L510.77206 198.824023z" p-id="1685" fill="#1296db"></path><path d="M515.376836 618.677326c-61.601679 0-111.640252-50.140901-111.640252-111.640252 0-61.601679 50.140901-111.640252 111.640252-111.640252C576.978515 395.294494 627.119416 445.435395 627.119416 507.037074 627.119416 568.536425 576.978515 618.677326 515.376836 618.677326zM515.376836 450.551814c-31.107825 0-56.382932 25.275107-56.382932 56.382932s25.275107 56.382932 56.382932 56.382932c31.107825 0 56.382932-25.275107 56.382932-56.382932S546.484661 450.551814 515.376836 450.551814z" p-id="1686" fill="#1296db"></path></svg>