<?xml version="1.0" standalone="no"?><!DOCTYPE svg PUBLIC "-//W3C//DTD SVG 1.1//EN" "http://www.w3.org/Graphics/SVG/1.1/DTD/svg11.dtd"><svg t="1770707378461" class="icon" viewBox="0 0 1024 1024" version="1.1" xmlns="http://www.w3.org/2000/svg" p-id="3623" xmlns:xlink="http://www.w3.org/1999/xlink" width="128" height="128"><path d="M960 768H64c-38.4 0-64 25.6-64 64v128c0 38.4 25.6 64 64 64h896c38.4 0 64-25.6 64-64v-128c0-38.4-25.6-64-64-64z m-64 192H601.6v-96H896V960zM960 384H64c-38.4 0-64 25.6-64 64v128c0 38.4 25.6 64 64 64h896c38.4 0 64-25.6 64-64V448c0-38.4-25.6-64-64-64z m-64 192H601.6V480H896V576zM960 0H64C25.6 0 0 25.6 0 64v128c0 38.4 25.6 64 64 64h896c38.4 0 64-25.6 64-64V64c0-38.4-25.6-64-64-64z m-64 192H601.6V96H896V192z" fill="#13227a" p-id="3624"></path></svg>