<?xml version="1.0" standalone="no"?><!DOCTYPE svg PUBLIC "-//W3C//DTD SVG 1.1//EN" "http://www.w3.org/Graphics/SVG/1.1/DTD/svg11.dtd"><svg t="1771912490898" class="icon" viewBox="0 0 1024 1024" version="1.1" xmlns="http://www.w3.org/2000/svg" p-id="2042" xmlns:xlink="http://www.w3.org/1999/xlink" width="128" height="128"><path d="M897.368642 467.947637c-42.159288-57.201559-113.482162-144.38533-207.726591-200.870591l53.517738-91.481563L695.474768 147.659838l-54.848006 93.937444c-42.159288-18.419107-88.104727-29.879884-137.427001-29.879884-187.670231 0-318.445888 165.567303-385.266314 256.12791-20.158689 27.321675-20.158689 68.560008 0 95.881683 44.615169 60.578395 117.984611 148.17148 217.754772 199.64265L286.365944 847.892875l47.68502 27.833317 52.699111-90.253622c35.917258 12.58639 74.802039 20.056361 116.449685 20.056361 187.670231 0 327.450784-151.036674 394.168882-241.69961C917.527331 536.507645 917.527331 495.269311 897.368642 467.947637zM297.92905 675.674228c-46.764065-35.610273-91.379235-82.578995-136.506046-143.873688-6.139702-8.390926-6.139702-23.535525 0-31.926451 36.224243-49.117618 80.941741-105.602878 138.040971-152.264615 31.312481-25.582093 63.238933-45.433796 94.960727-58.941141 35.712601-15.246927 72.346158-22.921555 108.775057-22.921555 36.4289 0 73.47177 7.674628 109.90067 22.819227l-67.332068 115.221745c-9.823524-2.865194-20.261017-4.40012-30.903168-4.40012-59.555111 0-107.95643 47.378035-107.95643 106.933147 0 30.289198 12.58639 58.531828 32.745078 78.997502l-76.848606 131.389627C341.009293 705.65644 319.315679 691.944439 297.92905 675.674228zM570.941141 506.320775c0 29.163585-25.275107 55.973618-54.336365 56.996902l47.787349-81.760368C568.48526 488.924953 570.941141 497.315879 570.941141 506.320775zM460.938143 506.320775c0-29.777556 24.251824-52.903767 54.029379-52.903767 0.61397 0 1.22794 0 1.841911 0l-47.889677 81.965024C463.905666 526.684121 460.938143 516.655941 460.938143 506.320775zM853.981413 531.80054c-29.470571 40.010393-77.769561 97.31428-140.292195 143.362047C644.719896 725.815129 573.908664 751.601879 503.19976 751.601879c-29.777556 0-59.452783-4.604777-88.616369-13.712002l72.653143-124.32897c8.80024 2.455881 18.112122 3.78615 27.730988 3.78615 59.555111 0 110.002998-51.47117 110.002998-111.026282 0-29.163585-12.074748-55.359648-31.41481-74.597382l68.969321-118.086939c16.577196 10.02818 33.25672 21.488958 49.731588 34.484661 48.196662 38.066154 94.653742 87.695413 141.724793 151.752973C860.121115 508.265014 860.121115 523.511942 853.981413 531.80054z" p-id="2043" fill="#707070"></path></svg>