<?xml version="1.0" standalone="no"?><!DOCTYPE svg PUBLIC "-//W3C//DTD SVG 1.1//EN" "http://www.w3.org/Graphics/SVG/1.1/DTD/svg11.dtd"><svg t="1776333310170" class="icon" viewBox="0 0 1024 1024" version="1.1" xmlns="http://www.w3.org/2000/svg" p-id="6931" xmlns:xlink="http://www.w3.org/1999/xlink" width="16" height="16"><path d="M685.848588 61.035028L634.070056 11.281356C628.574011 5.785311 621.053107 2.892655 613.532203 2.892655h-203.064406c-7.810169 0-15.041808 2.892655-20.537853 8.388701l-51.778532 49.753672c-5.496045 5.20678-13.016949 8.388701-20.537853 8.388701H131.615819c-16.488136 0-29.79435 13.306215-29.79435 29.79435v71.159322c0 16.488136 13.306215 29.79435 29.79435 29.79435h760.768362c16.488136 0 29.79435-13.306215 29.79435-29.79435V98.928814c0-16.488136-13.306215-29.79435-29.79435-29.794351h-185.99774c-7.520904 0-15.041808-2.892655-20.537853-8.099435z m-551.629379 841.762712c-0.867797 64.506215 50.910734 117.441808 115.416949 118.309605h524.727684c64.506215-0.867797 116.284746-53.80339 115.416949-118.309605V328.60565c0-16.488136-13.306215-29.79435-29.79435-29.794351H163.724294c-16.488136 0-29.79435 13.306215-29.79435 29.794351v574.19209z m256.578531-104.424859h-29.505085c-16.488136 0-29.79435-13.306215-29.79435-29.79435v-239.511864c0-16.488136 13.306215-29.79435 29.79435-29.794351h29.505085c16.488136 0 29.79435 13.306215 29.79435 29.794351v239.511864c-0.289266 16.488136-13.59548 29.79435-29.79435 29.79435z m273.066667 0h-30.662147c-16.488136 0-29.79435-13.306215-29.79435-29.79435v-239.511864c0-16.488136 13.306215-29.79435 29.79435-29.794351H662.418079c16.19887 0 29.505085 13.306215 29.79435 29.505085l1.446328 239.511865c0 16.777401-13.306215 30.083616-29.79435 30.083615z" p-id="6932" fill="#d81e06"></path></svg>