<?xml version="1.0" standalone="no"?><!DOCTYPE svg PUBLIC "-//W3C//DTD SVG 1.1//EN" "http://www.w3.org/Graphics/SVG/1.1/DTD/svg11.dtd"><svg t="1776333152314" class="icon" viewBox="0 0 1024 1024" version="1.1" xmlns="http://www.w3.org/2000/svg" p-id="4617" xmlns:xlink="http://www.w3.org/1999/xlink" width="16" height="16"><path d="M801.110285 603.39692a210.307185 210.307185 0 1 0 0.02258 420.59179 210.307185 210.307185 0 0 0-0.02258-420.59179z m0 394.286457a183.979273 183.979273 0 0 1-183.979272-184.001852 183.956693 183.956693 0 0 1 183.979272-183.979273 183.934113 183.934113 0 0 1 184.001853 183.979273 183.956693 183.956693 0 0 1-184.001853 184.001852z m0-420.59179c18.108907 0 35.630743 2.257968 52.565507 6.073935v-133.400779l-240.293007 9.054454-122.968964-276.014068H72.644491c-33.169557 0-60.061962 27.456897-60.061962 61.326424v613.331981c0 33.869527 26.892405 61.326424 60.061962 61.326424h516.803828a235.348056 235.348056 0 0 1-24.905392-105.131013c0-130.646057 105.921302-236.567359 236.567358-236.567358z m22.557106-156.725593V274.794765c0-33.869527-26.869825-61.326424-60.084542-61.326424H535.821568l107.592198 214.642485 180.253625-7.744832z m80.22562 364.571592h-73.993627v-74.061366a28.6762 28.6762 0 0 0-28.69878-28.608461h-0.158058a28.6762 28.6762 0 0 0-28.698779 28.608461v74.061366h-73.993628a28.6762 28.6762 0 0 0-28.676199 28.608461v0.180637c0 15.850939 12.87042 28.721359 28.676199 28.72136h73.993628v73.948468a28.6762 28.6762 0 0 0 28.698779 28.721359h0.158058c15.805779 0 28.69878-12.825261 28.69878-28.721359V842.448044h73.993627c15.828359 0 28.6762-12.87042 28.6762-28.72136v-0.180637a28.6762 28.6762 0 0 0-28.6762-28.608461z" fill="#13227a" p-id="4618"></path></svg>